<svg viewBox="0 0 77 84" fill="none" xmlns="http://www.w3.org/2000/svg">
<path d="M42.8721 45.6942L46.6796 45.5281L47.0763 45.5052L42.8721 45.6942ZM42.4688 45.7339L46.2765 45.5678L46.6796 45.5281L42.4688 45.7339ZM42.059 45.7906L45.8669 45.6245L46.2765 45.5678L42.059 45.7906ZM41.6428 45.8642L45.4508 45.698L45.8669 45.6245L41.6428 45.8642ZM41.22 45.9547L45.0282 45.7885L45.4508 45.698L41.22 45.9547ZM40.7907 46.0622L44.599 45.8959L45.0282 45.7885L40.7907 46.0622ZM27.0725 49.738L30.8865 49.5702L44.599 45.8959L27.0725 49.738ZM35.0693 20.6726L38.8801 20.5169L39.3732 20.4964L35.0693 20.6726ZM34.5654 20.7207L38.3764 20.5649L38.8801 20.5169L34.5654 20.7207ZM34.0511 20.7964L37.8622 20.6406L38.3764 20.5649L34.0511 20.7964ZM33.5262 20.8998L37.3376 20.744L37.8622 20.6406L33.5262 20.8998ZM32.9907 21.0309L36.8023 20.875L37.3376 20.744L32.9907 21.0309ZM20.2921 24.4335L24.109 24.2761L36.8023 20.875L20.2921 24.4335ZM40.4539 6.66332L44.2624 6.51335L43.3378 6.53699L40.4539 6.66332ZM41.3644 6.67807L45.1725 6.5281L44.2624 6.51335L41.3644 6.67807ZM42.2603 6.73121L46.0681 6.58122L45.1725 6.5281L42.2603 6.73121ZM43.1417 6.82274L46.9491 6.67272L46.0681 6.58122L43.1417 6.82274ZM44.0085 6.95267L47.8156 6.80259L46.9491 6.67272L44.0085 6.95267ZM44.8608 7.121L48.6675 6.97085L47.8156 6.80259L44.8608 7.121ZM45.7094 7.31929L49.5158 7.16906L48.6675 6.97085L45.7094 7.31929ZM46.5342 7.5474L50.3403 7.39707L49.5158 7.16906L46.5342 7.5474ZM47.3353 7.80532L51.141 7.65489L50.3403 7.39707L47.3353 7.80532ZM48.1127 8.09307L51.918 7.94252L51.141 7.65489L48.1127 8.09307ZM48.8663 8.41064L52.6713 8.25995L51.918 7.94252L48.8663 8.41064ZM49.5961 8.75802L53.4009 8.60719L52.6713 8.25995L49.5961 8.75802ZM50.3023 9.13523L54.1067 8.98424L53.4009 8.60719L50.3023 9.13523ZM50.9846 9.54225L54.7888 9.3911L54.1067 8.98424L50.9846 9.54225ZM51.6432 9.97909L55.4471 9.82776L54.7888 9.3911L51.6432 9.97909ZM52.2781 10.4458L56.0818 10.2942L55.4471 9.82776L52.2781 10.4458ZM52.8892 10.9422L56.6926 10.7905L56.0818 10.2942L52.8892 10.9422ZM53.4766 11.4685L57.2798 11.3166L56.6926 10.7905L53.4766 11.4685ZM54.0373 12.0213L57.8402 11.8691L57.2798 11.3166L54.0373 12.0213ZM54.5683 12.5972L58.371 12.4448L57.8402 11.8691L54.5683 12.5972ZM55.0696 13.1962L58.8721 13.0436L58.371 12.4448L55.0696 13.1962ZM55.5413 13.8184L59.3436 13.6655L58.8721 13.0436L55.5413 13.8184ZM55.9832 14.4637L59.7853 14.3105L59.3436 13.6655L55.9832 14.4637ZM56.3955 15.1321L60.1975 14.9787L59.7853 14.3105L56.3955 15.1321ZM56.7781 15.8237L60.5799 15.6699L60.1975 14.9787L56.7781 15.8237ZM57.1311 16.5384L60.9327 16.3843L60.5799 15.6699L57.1311 16.5384ZM57.4543 17.2762L61.2558 17.1218L60.9327 16.3843L57.4543 17.2762ZM57.7479 18.0371L61.5493 17.8824L61.2558 17.1218L57.7479 18.0371ZM58.0118 18.8212L61.8131 18.6662L61.5493 17.8824L58.0118 18.8212ZM58.246 19.6284L62.0472 19.4731L61.8131 18.6662L58.246 19.6284ZM58.5043 20.7182L62.3053 20.5625L62.0472 19.4731L58.5043 20.7182ZM58.6911 21.7941L62.4921 21.6379L62.3053 20.5625L58.6911 21.7941ZM58.8066 22.8559L62.6076 22.6993L62.4921 21.6379L58.8066 22.8559ZM58.8507 23.9038L62.6517 23.7467L62.6076 22.6993L58.8507 23.9038ZM58.8235 24.9376L62.6245 24.7801L62.6517 23.7467L58.8235 24.9376ZM58.7249 25.9575L62.5259 25.7996L62.6245 24.7801L58.7249 25.9575ZM58.555 26.9634L62.356 26.805L62.5259 25.7996L58.555 26.9634ZM58.3137 27.9553L62.1148 27.7965L62.356 26.805L58.3137 27.9553ZM58.001 28.9332L61.8023 28.774L62.1148 27.7965L58.001 28.9332ZM57.617 29.897L61.4184 29.7375L61.8023 28.774L57.617 29.897ZM57.1616 30.8469L60.9633 30.687L61.4184 29.7375L57.1616 30.8469ZM56.6349 31.7828L60.4367 31.6225L60.9633 30.687L56.6349 31.7828ZM56.0494 32.6772L59.8515 32.5165L60.4367 31.6225L56.0494 32.6772ZM55.3952 33.5417L59.1976 33.3806L59.8515 32.5165L55.3952 33.5417ZM54.6723 34.3763L58.475 34.2149L59.1976 33.3806L54.6723 34.3763ZM53.8807 35.1811L57.6837 35.0193L58.475 34.2149L53.8807 35.1811ZM53.0204 35.9559L56.8237 35.7939L57.6837 35.0193L53.0204 35.9559ZM52.0913 36.7009L55.895 36.5385L56.8237 35.7939L52.0913 36.7009ZM51.0935 37.416L54.8977 37.2533L55.895 36.5385L51.0935 37.416ZM50.027 38.1012L53.8316 37.9383L54.8977 37.2533L50.027 38.1012ZM48.8918 38.7566L52.6969 38.5933L53.8316 37.9383L48.8918 38.7566ZM47.6879 39.382L51.4934 39.2185L52.6969 38.5933L47.6879 39.382ZM46.4153 39.9776L50.2213 39.8139L51.4934 39.2185L46.4153 39.9776ZM45.0739 40.5433L48.8805 40.3793L50.2213 39.8139L45.0739 40.5433ZM48.2471 34.5892L52.0524 34.4277L50.5459 34.4879L48.2471 34.5892ZM49.7069 34.5995L53.5116 34.438L52.0524 34.4277L49.7069 34.5995ZM51.1195 34.6805L54.9236 34.519L53.5116 34.438L51.1195 34.6805ZM52.4847 34.8321L56.2882 34.6705L54.9236 34.519L52.4847 34.8321ZM53.8026 35.0544L57.6056 34.8927L56.2882 34.6705L53.8026 35.0544ZM55.0732 35.3472L58.8757 35.1854L57.6056 34.8927L55.0732 35.3472ZM56.2965 35.7107L60.0985 35.5487L58.8757 35.1854L56.2965 35.7107ZM57.4725 36.1448L61.274 35.9827L60.0985 35.5487L57.4725 36.1448ZM58.6012 36.6496L62.4023 36.4872L61.274 35.9827L58.6012 36.6496ZM59.6826 37.225L63.4832 37.0624L62.4023 36.4872L59.6826 37.225ZM60.7063 37.8475L64.5065 37.6847L63.4832 37.0624L60.7063 37.8475ZM61.6701 38.5248L65.4699 38.3616L64.5065 37.6847L61.6701 38.5248ZM62.5741 39.2567L66.3735 39.0933L65.4699 38.3616L62.5741 39.2567ZM63.4182 40.0433L67.2172 39.8795L66.3735 39.0933L63.4182 40.0433ZM64.2024 40.8846L68.0011 40.7205L67.2172 39.8795L64.2024 40.8846ZM64.9268 41.7805L68.7252 41.616L68.0011 40.7205L64.9268 41.7805ZM65.5913 42.7311L69.3894 42.5663L68.7252 41.616L65.5913 42.7311ZM66.196 43.7364L69.9938 43.5711L69.3894 42.5663L66.196 43.7364ZM66.7408 44.7964L70.5384 44.6307L69.9938 43.5711L66.7408 44.7964ZM67.2257 45.911L71.0231 45.7448L70.5384 44.6307L67.2257 45.911ZM67.6508 47.0803L71.448 46.9137L71.0231 45.7448L67.6508 47.0803ZM68.016 48.3043L71.8131 48.1371L71.448 46.9137L68.016 48.3043ZM68.2428 49.228L72.0398 49.0605L71.8131 48.1371L68.2428 49.228ZM68.4265 50.1454L72.2235 49.9774L72.0398 49.0605L68.4265 50.1454ZM68.5671 51.0563L72.364 50.888L72.2235 49.9774L68.5671 51.0563ZM68.6646 51.9609L72.4615 51.7921L72.364 50.888L68.6646 51.9609ZM68.719 52.859L72.5158 52.6899L72.4615 51.7921L68.719 52.859ZM68.7303 53.7508L72.5271 53.5813L72.5158 52.6899L68.7303 53.7508ZM68.6985 54.6362L72.4953 54.4664L72.5271 53.5813L68.6985 54.6362ZM68.6235 55.5152L72.4204 55.345L72.4953 54.4664L68.6235 55.5152ZM68.5055 56.3878L72.3024 56.2173L72.4204 55.345L68.5055 56.3878ZM68.3444 57.254L72.1414 57.0831L72.3024 56.2173L68.3444 57.254ZM68.1401 58.1139L71.9372 57.9426L72.1414 57.0831L68.1401 58.1139ZM67.8928 58.9673L71.6899 58.7957L71.9372 57.9426L67.8928 58.9673ZM67.6004 59.7942L71.3977 59.6223L71.6899 58.7957L67.6004 59.7942ZM67.2692 60.6053L71.0666 60.433L71.3977 59.6223L67.2692 60.6053ZM66.8993 61.4005L70.6969 61.2279L71.0666 60.433L66.8993 61.4005ZM66.4907 62.1798L70.2885 62.0069L70.6969 61.2279L66.4907 62.1798ZM66.0433 62.9434L69.8413 62.7702L70.2885 62.0069L66.0433 62.9434ZM65.5572 63.6911L69.3554 63.5175L69.8413 62.7702L65.5572 63.6911ZM65.0324 64.423L68.8308 64.2491L69.3554 63.5175L65.0324 64.423ZM64.4688 65.139L68.2674 64.9649L68.8308 64.2491L64.4688 65.139ZM63.8665 65.8392L67.6653 65.6648L68.2674 64.9649L63.8665 65.8392ZM63.2255 66.5236L67.0246 66.3489L67.6653 65.6648L63.2255 66.5236ZM62.5457 67.1921L66.345 67.0171L67.0246 66.3489L62.5457 67.1921ZM61.8271 67.8448L65.6268 67.6695L66.345 67.0171L61.8271 67.8448ZM61.0871 68.4715L64.8871 68.296L65.6268 67.6695L61.0871 68.4715ZM60.3121 69.0704L64.1124 68.8946L64.8871 68.296L60.3121 69.0704ZM59.502 69.6413L63.3026 69.4653L64.1124 68.8946L59.502 69.6413ZM58.6568 70.1845L62.4578 70.0082L63.3026 69.4653L58.6568 70.1845ZM57.7766 70.6997L61.578 70.5233L62.4578 70.0082L57.7766 70.6997ZM56.8613 71.1871L60.6631 71.0105L61.578 70.5233L56.8613 71.1871ZM55.911 71.6467L59.7131 71.4698L60.6631 71.0105L55.911 71.6467ZM54.9256 72.0784L58.7281 71.9013L59.7131 71.4698L54.9256 72.0784ZM53.9051 72.4822L57.7081 72.305L58.7281 71.9013L53.9051 72.4822ZM52.8496 72.8581L56.653 72.6808L57.7081 72.305L52.8496 72.8581ZM51.759 73.2063L55.5628 73.0288L56.653 72.6808L51.759 73.2063ZM50.6333 73.5265L54.4376 73.3489L55.5628 73.0288L50.6333 73.5265ZM34.5979 77.8232L38.4088 77.6438L54.4376 73.3489L34.5979 77.8232ZM37.7493 76.9787L41.559 76.7997L23.9573 11.1093L37.7493 76.9787ZM21.4358 81.3499L25.2522 81.1691L41.559 76.7997L21.4358 81.3499ZM43.2689 45.6713L42.8721 45.6942L47.0763 45.5052L43.2689 45.6713ZM42.8721 45.6942L42.4688 45.7339L46.6796 45.5281L42.8721 45.6942ZM42.4688 45.7339L42.059 45.7906L46.2765 45.5678L42.4688 45.7339ZM42.059 45.7906L41.6428 45.8642L45.8669 45.6245L42.059 45.7906ZM41.6428 45.8642L41.22 45.9547L45.4508 45.698L41.6428 45.8642ZM41.22 45.9547L40.7907 46.0622L45.0282 45.7885L41.22 45.9547ZM40.7907 46.0622L27.0725 49.738L44.599 45.8959L40.7907 46.0622ZM35.5626 20.6522L35.0693 20.6726L39.3732 20.4964L35.5626 20.6522ZM35.0693 20.6726L34.5654 20.7207L38.8801 20.5169L35.0693 20.6726ZM34.5654 20.7207L34.0511 20.7964L38.3764 20.5649L34.5654 20.7207ZM34.0511 20.7964L33.5262 20.8998L37.8622 20.6406L34.0511 20.7964ZM33.5262 20.8998L32.9907 21.0309L37.3376 20.744L33.5262 20.8998ZM32.9907 21.0309L20.2921 24.4335L36.8023 20.875L32.9907 21.0309ZM39.5289 6.68696L40.4539 6.66332L43.3378 6.53699L39.5289 6.68696ZM40.4539 6.66332L41.3644 6.67807L44.2624 6.51335L40.4539 6.66332ZM41.3644 6.67807L42.2603 6.73121L45.1725 6.5281L41.3644 6.67807ZM42.2603 6.73121L43.1417 6.82274L46.0681 6.58122L42.2603 6.73121ZM43.1417 6.82274L44.0085 6.95267L46.9491 6.67272L43.1417 6.82274ZM44.0085 6.95267L44.8608 7.121L47.8156 6.80259L44.0085 6.95267ZM44.8608 7.121L45.7094 7.31929L48.6675 6.97085L44.8608 7.121ZM45.7094 7.31929L46.5342 7.5474L49.5158 7.16906L45.7094 7.31929ZM46.5342 7.5474L47.3353 7.80532L50.3403 7.39707L46.5342 7.5474ZM47.3353 7.80532L48.1127 8.09307L51.141 7.65489L47.3353 7.80532ZM48.1127 8.09307L48.8663 8.41064L51.918 7.94252L48.1127 8.09307ZM48.8663 8.41064L49.5961 8.75802L52.6713 8.25995L48.8663 8.41064ZM49.5961 8.75802L50.3023 9.13523L53.4009 8.60719L49.5961 8.75802ZM50.3023 9.13523L50.9846 9.54225L54.1067 8.98424L50.3023 9.13523ZM50.9846 9.54225L51.6432 9.97909L54.7888 9.3911L50.9846 9.54225ZM51.6432 9.97909L52.2781 10.4458L55.4471 9.82776L51.6432 9.97909ZM52.2781 10.4458L52.8892 10.9422L56.0818 10.2942L52.2781 10.4458ZM52.8892 10.9422L53.4766 11.4685L56.6926 10.7905L52.8892 10.9422ZM53.4766 11.4685L54.0373 12.0213L57.2798 11.3166L53.4766 11.4685ZM54.0373 12.0213L54.5683 12.5972L57.8402 11.8691L54.0373 12.0213ZM54.5683 12.5972L55.0696 13.1962L58.371 12.4448L54.5683 12.5972ZM55.0696 13.1962L55.5413 13.8184L58.8721 13.0436L55.0696 13.1962ZM55.5413 13.8184L55.9832 14.4637L59.3436 13.6655L55.5413 13.8184ZM55.9832 14.4637L56.3955 15.1321L59.7853 14.3105L55.9832 14.4637ZM56.3955 15.1321L56.7781 15.8237L60.1975 14.9787L56.3955 15.1321ZM56.7781 15.8237L57.1311 16.5384L60.5799 15.6699L56.7781 15.8237ZM57.1311 16.5384L57.4543 17.2762L60.9327 16.3843L57.1311 16.5384ZM57.4543 17.2762L57.7479 18.0371L61.2558 17.1218L57.4543 17.2762ZM57.7479 18.0371L58.0118 18.8212L61.5493 17.8824L57.7479 18.0371ZM58.0118 18.8212L58.246 19.6284L61.8131 18.6662L58.0118 18.8212ZM58.246 19.6284L58.5043 20.7182L62.0472 19.4731L58.246 19.6284ZM58.5043 20.7182L58.6911 21.7941L62.3053 20.5625L58.5043 20.7182ZM58.6911 21.7941L58.8066 22.8559L62.4921 21.6379L58.6911 21.7941ZM58.8066 22.8559L58.8507 23.9038L62.6076 22.6993L58.8066 22.8559ZM58.8507 23.9038L58.8235 24.9376L62.6517 23.7467L58.8507 23.9038ZM58.8235 24.9376L58.7249 25.9575L62.6245 24.7801L58.8235 24.9376ZM58.7249 25.9575L58.555 26.9634L62.5259 25.7996L58.7249 25.9575ZM58.555 26.9634L58.3137 27.9553L62.356 26.805L58.555 26.9634ZM58.3137 27.9553L58.001 28.9332L62.1148 27.7965L58.3137 27.9553ZM58.001 28.9332L57.617 29.897L61.8023 28.774L58.001 28.9332ZM57.617 29.897L57.1616 30.8469L61.4184 29.7375L57.617 29.897ZM57.1616 30.8469L56.6349 31.7828L60.9633 30.687L57.1616 30.8469ZM56.6349 31.7828L56.0494 32.6772L60.4367 31.6225L56.6349 31.7828ZM56.0494 32.6772L55.3952 33.5417L59.8515 32.5165L56.0494 32.6772ZM55.3952 33.5417L54.6723 34.3763L59.1976 33.3806L55.3952 33.5417ZM54.6723 34.3763L53.8807 35.1811L58.475 34.2149L54.6723 34.3763ZM53.8807 35.1811L53.0204 35.9559L57.6837 35.0193L53.8807 35.1811ZM53.0204 35.9559L52.0913 36.7009L56.8237 35.7939L53.0204 35.9559ZM52.0913 36.7009L51.0935 37.416L55.895 36.5385L52.0913 36.7009ZM51.0935 37.416L50.027 38.1012L54.8977 37.2533L51.0935 37.416ZM50.027 38.1012L48.8918 38.7566L53.8316 37.9383L50.027 38.1012ZM48.8918 38.7566L47.6879 39.382L52.6969 38.5933L48.8918 38.7566ZM47.6879 39.382L46.4153 39.9776L51.4934 39.2185L47.6879 39.382ZM46.4153 39.9776L45.0739 40.5433L50.2213 39.8139L46.4153 39.9776ZM46.7399 34.6494L48.2471 34.5892L50.5459 34.4879L46.7399 34.6494ZM48.2471 34.5892L49.7069 34.5995L52.0524 34.4277L48.2471 34.5892ZM49.7069 34.5995L51.1195 34.6805L53.5116 34.438L49.7069 34.5995ZM51.1195 34.6805L52.4847 34.8321L54.9236 34.519L51.1195 34.6805ZM52.4847 34.8321L53.8026 35.0544L56.2882 34.6705L52.4847 34.8321ZM53.8026 35.0544L55.0732 35.3472L57.6056 34.8927L53.8026 35.0544ZM55.0732 35.3472L56.2965 35.7107L58.8757 35.1854L55.0732 35.3472ZM56.2965 35.7107L57.4725 36.1448L60.0985 35.5487L56.2965 35.7107ZM57.4725 36.1448L58.6012 36.6496L61.274 35.9827L57.4725 36.1448ZM58.6012 36.6496L59.6826 37.225L62.4023 36.4872L58.6012 36.6496ZM59.6826 37.225L60.7063 37.8475L63.4832 37.0624L59.6826 37.225ZM60.7063 37.8475L61.6701 38.5248L64.5065 37.6847L60.7063 37.8475ZM61.6701 38.5248L62.5741 39.2567L65.4699 38.3616L61.6701 38.5248ZM62.5741 39.2567L63.4182 40.0433L66.3735 39.0933L62.5741 39.2567ZM63.4182 40.0433L64.2024 40.8846L67.2172 39.8795L63.4182 40.0433ZM64.2024 40.8846L64.9268 41.7805L68.0011 40.7205L64.2024 40.8846ZM64.9268 41.7805L65.5913 42.7311L68.7252 41.616L64.9268 41.7805ZM65.5913 42.7311L66.196 43.7364L69.3894 42.5663L65.5913 42.7311ZM66.196 43.7364L66.7408 44.7964L69.9938 43.5711L66.196 43.7364ZM66.7408 44.7964L67.2257 45.911L70.5384 44.6307L66.7408 44.7964ZM67.2257 45.911L67.6508 47.0803L71.0231 45.7448L67.2257 45.911ZM67.6508 47.0803L68.016 48.3043L71.448 46.9137L67.6508 47.0803ZM68.016 48.3043L68.2428 49.228L71.8131 48.1371L68.016 48.3043ZM68.2428 49.228L68.4265 50.1454L72.0398 49.0605L68.2428 49.228ZM68.4265 50.1454L68.5671 51.0563L72.2235 49.9774L68.4265 50.1454ZM68.5671 51.0563L68.6646 51.9609L72.364 50.888L68.5671 51.0563ZM68.6646 51.9609L68.719 52.859L72.4615 51.7921L68.6646 51.9609ZM68.719 52.859L68.7303 53.7508L72.5158 52.6899L68.719 52.859ZM68.7303 53.7508L68.6985 54.6362L72.5271 53.5813L68.7303 53.7508ZM68.6985 54.6362L68.6235 55.5152L72.4953 54.4664L68.6985 54.6362ZM68.6235 55.5152L68.5055 56.3878L72.4204 55.345L68.6235 55.5152ZM68.5055 56.3878L68.3444 57.254L72.3024 56.2173L68.5055 56.3878ZM68.3444 57.254L68.1401 58.1139L72.1414 57.0831L68.3444 57.254ZM68.1401 58.1139L67.8928 58.9673L71.9372 57.9426L68.1401 58.1139ZM67.8928 58.9673L67.6004 59.7942L71.6899 58.7957L67.8928 58.9673ZM67.6004 59.7942L67.2692 60.6053L71.3977 59.6223L67.6004 59.7942ZM67.2692 60.6053L66.8993 61.4005L71.0666 60.433L67.2692 60.6053ZM66.8993 61.4005L66.4907 62.1798L70.6969 61.2279L66.8993 61.4005ZM66.4907 62.1798L66.0433 62.9434L70.2885 62.0069L66.4907 62.1798ZM66.0433 62.9434L65.5572 63.6911L69.8413 62.7702L66.0433 62.9434ZM65.5572 63.6911L65.0324 64.423L69.3554 63.5175L65.5572 63.6911ZM65.0324 64.423L64.4688 65.139L68.8308 64.2491L65.0324 64.423ZM64.4688 65.139L63.8665 65.8392L68.2674 64.9649L64.4688 65.139ZM63.8665 65.8392L63.2255 66.5236L67.6653 65.6648L63.8665 65.8392ZM63.2255 66.5236L62.5457 67.1921L67.0246 66.3489L63.2255 66.5236ZM62.5457 67.1921L61.8271 67.8448L66.345 67.0171L62.5457 67.1921ZM61.8271 67.8448L61.0871 68.4715L65.6268 67.6695L61.8271 67.8448ZM61.0871 68.4715L60.3121 69.0704L64.8871 68.296L61.0871 68.4715ZM60.3121 69.0704L59.502 69.6413L64.1124 68.8946L60.3121 69.0704ZM59.502 69.6413L58.6568 70.1845L63.3026 69.4653L59.502 69.6413ZM58.6568 70.1845L57.7766 70.6997L62.4578 70.0082L58.6568 70.1845ZM57.7766 70.6997L56.8613 71.1871L61.578 70.5233L57.7766 70.6997ZM56.8613 71.1871L55.911 71.6467L60.6631 71.0105L56.8613 71.1871ZM55.911 71.6467L54.9256 72.0784L59.7131 71.4698L55.911 71.6467ZM54.9256 72.0784L53.9051 72.4822L58.7281 71.9013L54.9256 72.0784ZM53.9051 72.4822L52.8496 72.8581L57.7081 72.305L53.9051 72.4822ZM52.8496 72.8581L51.759 73.2063L56.653 72.6808L52.8496 72.8581ZM51.759 73.2063L50.6333 73.5265L55.5628 73.0288L51.759 73.2063ZM50.6333 73.5265L34.5979 77.8232L54.4376 73.3489L50.6333 73.5265ZM20.1404 11.2612L37.7493 76.9787L23.9573 11.1093L20.1404 11.2612ZM37.7493 76.9787L21.4358 81.3499L41.559 76.7997L37.7493 76.9787ZM39.0614 45.8604L42.8721 45.6942L43.2689 45.6713L39.0614 45.8604ZM38.658 45.9002L42.4688 45.7339L42.8721 45.6942L38.658 45.9002ZM38.248 45.9569L42.059 45.7906L42.4688 45.7339L38.248 45.9569ZM37.8316 46.0305L41.6428 45.8642L42.059 45.7906L37.8316 46.0305ZM37.4086 46.1211L41.22 45.9547L41.6428 45.8642L37.4086 46.1211ZM36.9791 46.2286L40.7907 46.0622L41.22 45.9547L36.9791 46.2286ZM23.2552 49.9059L27.0725 49.738L40.7907 46.0622L23.2552 49.9059ZM31.2554 20.8285L35.0693 20.6726L35.5626 20.6522L31.2554 20.8285ZM30.7513 20.8766L34.5654 20.7207L35.0693 20.6726L30.7513 20.8766ZM30.2367 20.9524L34.0511 20.7964L34.5654 20.7207L30.2367 20.9524ZM29.7116 21.0558L33.5262 20.8998L34.0511 20.7964L29.7116 21.0558ZM29.176 21.1869L32.9907 21.0309L33.5262 20.8998L29.176 21.1869ZM16.4721 24.5909L20.2921 24.4335L32.9907 21.0309L16.4721 24.5909ZM36.6422 6.8134L40.4539 6.66332L39.5289 6.68696L36.6422 6.8134ZM37.5531 6.82816L41.3644 6.67807L40.4539 6.66332L37.5531 6.82816ZM38.4494 6.88132L42.2603 6.73121L41.3644 6.67807L38.4494 6.88132ZM39.3311 6.97289L43.1417 6.82274L42.2603 6.73121L39.3311 6.97289ZM40.1983 7.10288L44.0085 6.95267L43.1417 6.82274L40.1983 7.10288ZM41.051 7.27127L44.8608 7.121L44.0085 6.95267L41.051 7.27127ZM41.8999 7.46965L45.7094 7.31929L44.8608 7.121L41.8999 7.46965ZM42.7251 7.69785L46.5342 7.5474L45.7094 7.31929L42.7251 7.69785ZM43.5265 7.95588L47.3353 7.80532L46.5342 7.5474L43.5265 7.95588ZM44.3042 8.24375L48.1127 8.09307L47.3353 7.80532L44.3042 8.24375ZM45.0581 8.56145L48.8663 8.41064L48.1127 8.09307L45.0581 8.56145ZM45.7882 8.90897L49.5961 8.75802L48.8663 8.41064L45.7882 8.90897ZM46.4947 9.28633L50.3023 9.13523L49.5961 8.75802L46.4947 9.28633ZM47.1773 9.69353L50.9846 9.54225L50.3023 9.13523L47.1773 9.69353ZM47.8362 10.1306L51.6432 9.97909L50.9846 9.54225L47.8362 10.1306ZM48.4713 10.5974L52.2781 10.4458L51.6432 9.97909L48.4713 10.5974ZM49.0827 11.0941L52.8892 10.9422L52.2781 10.4458L49.0827 11.0941ZM49.6703 11.6206L53.4766 11.4685L52.8892 10.9422L49.6703 11.6206ZM50.2313 12.1736L54.0373 12.0213L53.4766 11.4685L50.2313 12.1736ZM50.7625 12.7498L54.5683 12.5972L54.0373 12.0213L50.7625 12.7498ZM51.264 13.349L55.0696 13.1962L54.5683 12.5972L51.264 13.349ZM51.7358 13.9715L55.5413 13.8184L55.0696 13.1962L51.7358 13.9715ZM52.178 14.617L55.9832 14.4637L55.5413 13.8184L52.178 14.617ZM52.5904 15.2857L56.3955 15.1321L55.9832 14.4637L52.5904 15.2857ZM52.9732 15.9776L56.7781 15.8237L56.3955 15.1321L52.9732 15.9776ZM53.3263 16.6925L57.1311 16.5384L56.7781 15.8237L53.3263 16.6925ZM53.6497 17.4307L57.4543 17.2762L57.1311 16.5384L53.6497 17.4307ZM53.9434 18.1919L57.7479 18.0371L57.4543 17.2762L53.9434 18.1919ZM54.2074 18.9763L58.0118 18.8212L57.7479 18.0371L54.2074 18.9763ZM54.4417 19.7838L58.246 19.6284L58.0118 18.8212L54.4417 19.7838ZM54.7001 20.8741L58.5043 20.7182L58.246 19.6284L54.7001 20.8741ZM54.887 21.9504L58.6911 21.7941L58.5043 20.7182L54.887 21.9504ZM55.0025 23.0127L58.8066 22.8559L58.6911 21.7941L55.0025 23.0127ZM55.0467 24.061L58.8507 23.9038L58.8066 22.8559L55.0467 24.061ZM55.0195 25.0953L58.8235 24.9376L58.8507 23.9038L55.0195 25.0953ZM54.9208 26.1156L58.7249 25.9575L58.8235 24.9376L54.9208 26.1156ZM54.7508 27.1219L58.555 26.9634L58.7249 25.9575L54.7508 27.1219ZM54.5094 28.1142L58.3137 27.9553L58.555 26.9634L54.5094 28.1142ZM54.1966 29.0925L58.001 28.9332L58.3137 27.9553L54.1966 29.0925ZM53.8124 30.0568L57.617 29.897L58.001 28.9332L53.8124 30.0568ZM53.3569 31.007L57.1616 30.8469L57.617 29.897L53.3569 31.007ZM52.8299 31.9433L56.6349 31.7828L57.1616 30.8469L52.8299 31.9433ZM52.2442 32.8381L56.0494 32.6772L56.6349 31.7828L52.2442 32.8381ZM51.5897 33.7029L55.3952 33.5417L56.0494 32.6772L51.5897 33.7029ZM50.8665 34.5379L54.6723 34.3763L55.3952 33.5417L50.8665 34.5379ZM50.0746 35.343L53.8807 35.1811L54.6723 34.3763L50.0746 35.343ZM49.2139 36.1182L53.0204 35.9559L53.8807 35.1811L49.2139 36.1182ZM48.2844 36.8634L52.0913 36.7009L53.0204 35.9559L48.2844 36.8634ZM47.2863 37.5788L51.0935 37.416L52.0913 36.7009L47.2863 37.5788ZM46.2193 38.2643L50.027 38.1012L51.0935 37.416L46.2193 38.2643ZM45.0836 38.9199L48.8918 38.7566L50.027 38.1012L45.0836 38.9199ZM43.8792 39.5457L47.6879 39.382L48.8918 38.7566L43.8792 39.5457ZM42.606 40.1415L46.4153 39.9776L47.6879 39.382L42.606 40.1415ZM41.2641 40.7074L45.0739 40.5433L46.4153 39.9776L41.2641 40.7074ZM44.4386 34.7508L48.2471 34.5892L46.7399 34.6494L44.4386 34.7508ZM45.8991 34.7612L49.7069 34.5995L48.2471 34.5892L45.8991 34.7612ZM47.3122 34.8422L51.1195 34.6805L49.7069 34.5995L47.3122 34.8422ZM48.678 34.9939L52.4847 34.8321L51.1195 34.6805L48.678 34.9939ZM49.9964 35.2162L53.8026 35.0544L52.4847 34.8321L49.9964 35.2162ZM51.2676 35.5092L55.0732 35.3472L53.8026 35.0544L51.2676 35.5092ZM52.4914 35.8728L56.2965 35.7107L55.0732 35.3472L52.4914 35.8728ZM53.6679 36.3071L57.4725 36.1448L56.2965 35.7107L53.6679 36.3071ZM54.7971 36.8121L58.6012 36.6496L57.4725 36.1448L54.7971 36.8121ZM55.8789 37.3877L59.6826 37.225L58.6012 36.6496L55.8789 37.3877ZM56.903 38.0105L60.7063 37.8475L59.6826 37.225L56.903 38.0105ZM57.8672 38.6881L61.6701 38.5248L60.7063 37.8475L57.8672 38.6881ZM58.7716 39.4203L62.5741 39.2567L61.6701 38.5248L58.7716 39.4203ZM59.616 40.2072L63.4182 40.0433L62.5741 39.2567L59.616 40.2072ZM60.4006 41.0488L64.2024 40.8846L63.4182 40.0433L60.4006 41.0488ZM61.1252 41.9451L64.9268 41.7805L64.2024 40.8846L61.1252 41.9451ZM61.79 42.8962L65.5913 42.7311L64.9268 41.7805L61.79 42.8962ZM62.3949 43.9019L66.196 43.7364L65.5913 42.7311L62.3949 43.9019ZM62.94 44.9623L66.7408 44.7964L66.196 43.7364L62.94 44.9623ZM63.4251 46.0774L67.2257 45.911L66.7408 44.7964L63.4251 46.0774ZM63.8504 47.2472L67.6508 47.0803L67.2257 45.911L63.8504 47.2472ZM64.2157 48.4717L68.016 48.3043L67.6508 47.0803L64.2157 48.4717ZM64.4426 49.3957L68.2428 49.228L68.016 48.3043L64.4426 49.3957ZM64.6264 50.3135L68.4265 50.1454L68.2428 49.228L64.6264 50.3135ZM64.7671 51.2248L68.5671 51.0563L68.4265 50.1454L64.7671 51.2248ZM64.8646 52.1297L68.6646 51.9609L68.5671 51.0563L64.8646 52.1297ZM64.919 53.0282L68.719 52.859L68.6646 51.9609L64.919 53.0282ZM64.9303 53.9204L68.7303 53.7508L68.719 52.859L64.9303 53.9204ZM64.8985 54.8061L68.6985 54.6362L68.7303 53.7508L64.8985 54.8061ZM64.8235 55.6855L68.6235 55.5152L68.6985 54.6362L64.8235 55.6855ZM64.7054 56.5585L68.5055 56.3878L68.6235 55.5152L64.7054 56.5585ZM64.5442 57.4251L68.3444 57.254L68.5055 56.3878L64.5442 57.4251ZM64.3399 58.2852L68.1401 58.1139L68.3444 57.254L64.3399 58.2852ZM64.0924 59.139L67.8928 58.9673L68.1401 58.1139L64.0924 59.139ZM63.7999 59.9663L67.6004 59.7942L67.8928 58.9673L63.7999 59.9663ZM63.4686 60.7777L67.2692 60.6053L67.6004 59.7942L63.4686 60.7777ZM63.0986 61.5732L66.8993 61.4005L67.2692 60.6053L63.0986 61.5732ZM62.6898 62.3529L66.4907 62.1798L66.8993 61.4005L62.6898 62.3529ZM62.2423 63.1168L66.0433 62.9434L66.4907 62.1798L62.2423 63.1168ZM61.756 63.8648L65.5572 63.6911L66.0433 62.9434L61.756 63.8648ZM61.2309 64.597L65.0324 64.423L65.5572 63.6911L61.2309 64.597ZM60.6671 65.3133L64.4688 65.139L65.0324 64.423L60.6671 65.3133ZM60.0645 66.0138L63.8665 65.8392L64.4688 65.139L60.0645 66.0138ZM59.4232 66.6985L63.2255 66.5236L63.8665 65.8392L59.4232 66.6985ZM58.7431 67.3673L62.5457 67.1921L63.2255 66.5236L58.7431 67.3673ZM58.0243 68.0202L61.8271 67.8448L62.5457 67.1921L58.0243 68.0202ZM57.284 68.6472L61.0871 68.4715L61.8271 67.8448L57.284 68.6472ZM56.5086 69.2463L60.3121 69.0704L61.0871 68.4715L56.5086 69.2463ZM55.6982 69.8175L59.502 69.6413L60.3121 69.0704L55.6982 69.8175ZM54.8527 70.3609L58.6568 70.1845L59.502 69.6413L54.8527 70.3609ZM53.9721 70.8763L57.7766 70.6997L58.6568 70.1845L53.9721 70.8763ZM53.0564 71.3639L56.8613 71.1871L57.7766 70.6997L53.0564 71.3639ZM52.1057 71.8237L55.911 71.6467L56.8613 71.1871L52.1057 71.8237ZM51.1199 72.2555L54.9256 72.0784L55.911 71.6467L51.1199 72.2555ZM50.099 72.6595L53.9051 72.4822L54.9256 72.0784L50.099 72.6595ZM49.043 73.0356L52.8496 72.8581L53.9051 72.4822L49.043 73.0356ZM47.952 73.3839L51.759 73.2063L52.8496 72.8581L47.952 73.3839ZM46.8259 73.7043L50.6333 73.5265L51.759 73.2063L46.8259 73.7043ZM30.7838 78.0027L34.5979 77.8232L50.6333 73.5265L30.7838 78.0027ZM33.9365 77.1579L37.7493 76.9787L20.1404 11.2612L33.9365 77.1579ZM17.6163 81.531L21.4358 81.3499L37.7493 76.9787L17.6163 81.531ZM39.4584 45.8376L39.0614 45.8604L43.2689 45.6713L39.4584 45.8376ZM39.0614 45.8604L38.658 45.9002L42.8721 45.6942L39.0614 45.8604ZM38.658 45.9002L38.248 45.9569L42.4688 45.7339L38.658 45.9002ZM38.248 45.9569L37.8316 46.0305L42.059 45.7906L38.248 45.9569ZM37.8316 46.0305L37.4086 46.1211L41.6428 45.8642L37.8316 46.0305ZM37.4086 46.1211L36.9791 46.2286L41.22 45.9547L37.4086 46.1211ZM36.9791 46.2286L23.2552 49.9059L40.7907 46.0622L36.9791 46.2286ZM31.7489 20.8081L31.2554 20.8285L35.5626 20.6522L31.7489 20.8081ZM31.2554 20.8285L30.7513 20.8766L35.0693 20.6726L31.2554 20.8285ZM30.7513 20.8766L30.2367 20.9524L34.5654 20.7207L30.7513 20.8766ZM30.2367 20.9524L29.7116 21.0558L34.0511 20.7964L30.2367 20.9524ZM29.7116 21.0558L29.176 21.1869L33.5262 20.8998L29.7116 21.0558ZM29.176 21.1869L16.4721 24.5909L32.9907 21.0309L29.176 21.1869ZM35.7168 6.83705L36.6422 6.8134L39.5289 6.68696L35.7168 6.83705ZM36.6422 6.8134L37.5531 6.82816L40.4539 6.66332L36.6422 6.8134ZM37.5531 6.82816L38.4494 6.88132L41.3644 6.67807L37.5531 6.82816ZM38.4494 6.88132L39.3311 6.97289L42.2603 6.73121L38.4494 6.88132ZM39.3311 6.97289L40.1983 7.10288L43.1417 6.82274L39.3311 6.97289ZM40.1983 7.10288L41.051 7.27127L44.0085 6.95267L40.1983 7.10288ZM41.051 7.27127L41.8999 7.46965L44.8608 7.121L41.051 7.27127ZM41.8999 7.46965L42.7251 7.69785L45.7094 7.31929L41.8999 7.46965ZM42.7251 7.69785L43.5265 7.95588L46.5342 7.5474L42.7251 7.69785ZM43.5265 7.95588L44.3042 8.24375L47.3353 7.80532L43.5265 7.95588ZM44.3042 8.24375L45.0581 8.56145L48.1127 8.09307L44.3042 8.24375ZM45.0581 8.56145L45.7882 8.90897L48.8663 8.41064L45.0581 8.56145ZM45.7882 8.90897L46.4947 9.28633L49.5961 8.75802L45.7882 8.90897ZM46.4947 9.28633L47.1773 9.69353L50.3023 9.13523L46.4947 9.28633ZM47.1773 9.69353L47.8362 10.1306L50.9846 9.54225L47.1773 9.69353ZM47.8362 10.1306L48.4713 10.5974L51.6432 9.97909L47.8362 10.1306ZM48.4713 10.5974L49.0827 11.0941L52.2781 10.4458L48.4713 10.5974ZM49.0827 11.0941L49.6703 11.6206L52.8892 10.9422L49.0827 11.0941ZM49.6703 11.6206L50.2313 12.1736L53.4766 11.4685L49.6703 11.6206ZM50.2313 12.1736L50.7625 12.7498L54.0373 12.0213L50.2313 12.1736ZM50.7625 12.7498L51.264 13.349L54.5683 12.5972L50.7625 12.7498ZM51.264 13.349L51.7358 13.9715L55.0696 13.1962L51.264 13.349ZM51.7358 13.9715L52.178 14.617L55.5413 13.8184L51.7358 13.9715ZM52.178 14.617L52.5904 15.2857L55.9832 14.4637L52.178 14.617ZM52.5904 15.2857L52.9732 15.9776L56.3955 15.1321L52.5904 15.2857ZM52.9732 15.9776L53.3263 16.6925L56.7781 15.8237L52.9732 15.9776ZM53.3263 16.6925L53.6497 17.4307L57.1311 16.5384L53.3263 16.6925ZM53.6497 17.4307L53.9434 18.1919L57.4543 17.2762L53.6497 17.4307ZM53.9434 18.1919L54.2074 18.9763L57.7479 18.0371L53.9434 18.1919ZM54.2074 18.9763L54.4417 19.7838L58.0118 18.8212L54.2074 18.9763ZM54.4417 19.7838L54.7001 20.8741L58.246 19.6284L54.4417 19.7838ZM54.7001 20.8741L54.887 21.9504L58.5043 20.7182L54.7001 20.8741ZM54.887 21.9504L55.0025 23.0127L58.6911 21.7941L54.887 21.9504ZM55.0025 23.0127L55.0467 24.061L58.8066 22.8559L55.0025 23.0127ZM55.0467 24.061L55.0195 25.0953L58.8507 23.9038L55.0467 24.061ZM55.0195 25.0953L54.9208 26.1156L58.8235 24.9376L55.0195 25.0953ZM54.9208 26.1156L54.7508 27.1219L58.7249 25.9575L54.9208 26.1156ZM54.7508 27.1219L54.5094 28.1142L58.555 26.9634L54.7508 27.1219ZM54.5094 28.1142L54.1966 29.0925L58.3137 27.9553L54.5094 28.1142ZM54.1966 29.0925L53.8124 30.0568L58.001 28.9332L54.1966 29.0925ZM53.8124 30.0568L53.3569 31.007L57.617 29.897L53.8124 30.0568ZM53.3569 31.007L52.8299 31.9433L57.1616 30.8469L53.3569 31.007ZM52.8299 31.9433L52.2442 32.8381L56.6349 31.7828L52.8299 31.9433ZM52.2442 32.8381L51.5897 33.7029L56.0494 32.6772L52.2442 32.8381ZM51.5897 33.7029L50.8665 34.5379L55.3952 33.5417L51.5897 33.7029ZM50.8665 34.5379L50.0746 35.343L54.6723 34.3763L50.8665 34.5379ZM50.0746 35.343L49.2139 36.1182L53.8807 35.1811L50.0746 35.343ZM49.2139 36.1182L48.2844 36.8634L53.0204 35.9559L49.2139 36.1182ZM48.2844 36.8634L47.2863 37.5788L52.0913 36.7009L48.2844 36.8634ZM47.2863 37.5788L46.2193 38.2643L51.0935 37.416L47.2863 37.5788ZM46.2193 38.2643L45.0836 38.9199L50.027 38.1012L46.2193 38.2643ZM45.0836 38.9199L43.8792 39.5457L48.8918 38.7566L45.0836 38.9199ZM43.8792 39.5457L42.606 40.1415L47.6879 39.382L43.8792 39.5457ZM42.606 40.1415L41.2641 40.7074L46.4153 39.9776L42.606 40.1415ZM42.9309 34.8111L44.4386 34.7508L46.7399 34.6494L42.9309 34.8111ZM44.4386 34.7508L45.8991 34.7612L48.2471 34.5892L44.4386 34.7508ZM45.8991 34.7612L47.3122 34.8422L49.7069 34.5995L45.8991 34.7612ZM47.3122 34.8422L48.678 34.9939L51.1195 34.6805L47.3122 34.8422ZM48.678 34.9939L49.9964 35.2162L52.4847 34.8321L48.678 34.9939ZM49.9964 35.2162L51.2676 35.5092L53.8026 35.0544L49.9964 35.2162ZM51.2676 35.5092L52.4914 35.8728L55.0732 35.3472L51.2676 35.5092ZM52.4914 35.8728L53.6679 36.3071L56.2965 35.7107L52.4914 35.8728ZM53.6679 36.3071L54.7971 36.8121L57.4725 36.1448L53.6679 36.3071ZM54.7971 36.8121L55.8789 37.3877L58.6012 36.6496L54.7971 36.8121ZM55.8789 37.3877L56.903 38.0105L59.6826 37.225L55.8789 37.3877ZM56.903 38.0105L57.8672 38.6881L60.7063 37.8475L56.903 38.0105ZM57.8672 38.6881L58.7716 39.4203L61.6701 38.5248L57.8672 38.6881ZM58.7716 39.4203L59.616 40.2072L62.5741 39.2567L58.7716 39.4203ZM59.616 40.2072L60.4006 41.0488L63.4182 40.0433L59.616 40.2072ZM60.4006 41.0488L61.1252 41.9451L64.2024 40.8846L60.4006 41.0488ZM61.1252 41.9451L61.79 42.8962L64.9268 41.7805L61.1252 41.9451ZM61.79 42.8962L62.3949 43.9019L65.5913 42.7311L61.79 42.8962ZM62.3949 43.9019L62.94 44.9623L66.196 43.7364L62.3949 43.9019ZM62.94 44.9623L63.4251 46.0774L66.7408 44.7964L62.94 44.9623ZM63.4251 46.0774L63.8504 47.2472L67.2257 45.911L63.4251 46.0774ZM63.8504 47.2472L64.2157 48.4717L67.6508 47.0803L63.8504 47.2472ZM64.2157 48.4717L64.4426 49.3957L68.016 48.3043L64.2157 48.4717ZM64.4426 49.3957L64.6264 50.3135L68.2428 49.228L64.4426 49.3957ZM64.6264 50.3135L64.7671 51.2248L68.4265 50.1454L64.6264 50.3135ZM64.7671 51.2248L64.8646 52.1297L68.5671 51.0563L64.7671 51.2248ZM64.8646 52.1297L64.919 53.0282L68.6646 51.9609L64.8646 52.1297ZM64.919 53.0282L64.9303 53.9204L68.719 52.859L64.919 53.0282ZM64.9303 53.9204L64.8985 54.8061L68.7303 53.7508L64.9303 53.9204ZM64.8985 54.8061L64.8235 55.6855L68.6985 54.6362L64.8985 54.8061ZM64.8235 55.6855L64.7054 56.5585L68.6235 55.5152L64.8235 55.6855ZM64.7054 56.5585L64.5442 57.4251L68.5055 56.3878L64.7054 56.5585ZM64.5442 57.4251L64.3399 58.2852L68.3444 57.254L64.5442 57.4251ZM64.3399 58.2852L64.0924 59.139L68.1401 58.1139L64.3399 58.2852ZM64.0924 59.139L63.7999 59.9663L67.8928 58.9673L64.0924 59.139ZM63.7999 59.9663L63.4686 60.7777L67.6004 59.7942L63.7999 59.9663ZM63.4686 60.7777L63.0986 61.5732L67.2692 60.6053L63.4686 60.7777ZM63.0986 61.5732L62.6898 62.3529L66.8993 61.4005L63.0986 61.5732ZM62.6898 62.3529L62.2423 63.1168L66.4907 62.1798L62.6898 62.3529ZM62.2423 63.1168L61.756 63.8648L66.0433 62.9434L62.2423 63.1168ZM61.756 63.8648L61.2309 64.597L65.5572 63.6911L61.756 63.8648ZM61.2309 64.597L60.6671 65.3133L65.0324 64.423L61.2309 64.597ZM60.6671 65.3133L60.0645 66.0138L64.4688 65.139L60.6671 65.3133ZM60.0645 66.0138L59.4232 66.6985L63.8665 65.8392L60.0645 66.0138ZM59.4232 66.6985L58.7431 67.3673L63.2255 66.5236L59.4232 66.6985ZM58.7431 67.3673L58.0243 68.0202L62.5457 67.1921L58.7431 67.3673ZM58.0243 68.0202L57.284 68.6472L61.8271 67.8448L58.0243 68.0202ZM57.284 68.6472L56.5086 69.2463L61.0871 68.4715L57.284 68.6472ZM56.5086 69.2463L55.6982 69.8175L60.3121 69.0704L56.5086 69.2463ZM55.6982 69.8175L54.8527 70.3609L59.502 69.6413L55.6982 69.8175ZM54.8527 70.3609L53.9721 70.8763L58.6568 70.1845L54.8527 70.3609ZM53.9721 70.8763L53.0564 71.3639L57.7766 70.6997L53.9721 70.8763ZM53.0564 71.3639L52.1057 71.8237L56.8613 71.1871L53.0564 71.3639ZM52.1057 71.8237L51.1199 72.2555L55.911 71.6467L52.1057 71.8237ZM51.1199 72.2555L50.099 72.6595L54.9256 72.0784L51.1199 72.2555ZM50.099 72.6595L49.043 73.0356L53.9051 72.4822L50.099 72.6595ZM49.043 73.0356L47.952 73.3839L52.8496 72.8581L49.043 73.0356ZM47.952 73.3839L46.8259 73.7043L51.759 73.2063L47.952 73.3839ZM46.8259 73.7043L30.7838 78.0027L50.6333 73.5265L46.8259 73.7043ZM16.3203 11.4132L33.9365 77.1579L20.1404 11.2612L16.3203 11.4132ZM33.9365 77.1579L17.6163 81.531L37.7493 76.9787L33.9365 77.1579Z" fill="#FF4E00"/>
<path d="M27.4792 65.6698L30.7838 78.0027L46.8259 73.7043L27.4792 65.6698ZM41.3455 45.9772L41.7034 46.056L42.0647 46.1317L41.3455 45.9772ZM20.05 37.9439L23.2552 49.9059L36.9791 46.2286L20.05 37.9439ZM13.1675 12.258L16.4721 24.5909L29.176 21.1869L13.1675 12.258ZM30.8714 7.53145L29.8587 7.78556L13.1675 12.258L30.8714 7.53145ZM32.8533 7.13847L31.8696 7.31576L30.8714 7.53145L32.8533 7.13847ZM34.7769 6.89912L33.8223 6.99958L32.8533 7.13847L34.7769 6.89912ZM36.6422 6.8134L35.7168 6.83705L34.7769 6.89912L36.6422 6.8134ZM38.4494 6.88132L37.5531 6.82816L36.6422 6.8134L38.4494 6.88132ZM40.1983 7.10288L39.3311 6.97289L38.4494 6.88132L40.1983 7.10288ZM41.8999 7.46965L41.051 7.27127L40.1983 7.10288L41.8999 7.46965ZM43.5265 7.95588L42.7251 7.69785L41.8999 7.46965L43.5265 7.95588ZM45.0581 8.56145L44.3042 8.24375L43.5265 7.95588L45.0581 8.56145ZM46.4947 9.28633L45.7882 8.90897L45.0581 8.56145L46.4947 9.28633ZM47.8362 10.1306L47.1773 9.69353L46.4947 9.28633L47.8362 10.1306ZM49.0827 11.0941L48.4713 10.5974L47.8362 10.1306L49.0827 11.0941ZM50.2313 12.1736L49.6703 11.6206L49.0827 11.0941L50.2313 12.1736ZM51.264 13.349L50.7625 12.7498L50.2313 12.1736L51.264 13.349ZM52.178 14.617L51.7358 13.9715L51.264 13.349L52.178 14.617ZM52.9732 15.9776L52.5904 15.2857L52.178 14.617L52.9732 15.9776ZM53.6497 17.4307L53.3263 16.6925L52.9732 15.9776L53.6497 17.4307ZM54.2074 18.9763L53.9434 18.1919L53.6497 17.4307L54.2074 18.9763ZM54.7001 20.8741L54.4417 19.7838L54.2074 18.9763L54.7001 20.8741ZM55.0025 23.0127L54.887 21.9504L54.7001 20.8741L55.0025 23.0127ZM55.0195 25.0953L55.0467 24.061L55.0025 23.0127L55.0195 25.0953ZM54.7508 27.1219L54.9208 26.1156L55.0195 25.0953L54.7508 27.1219ZM54.1966 29.0925L54.5094 28.1142L54.7508 27.1219L54.1966 29.0925ZM53.3569 31.007L53.8124 30.0568L54.1966 29.0925L53.3569 31.007ZM52.2442 32.8381L52.8299 31.9433L53.3569 31.007L52.2442 32.8381ZM50.8665 34.5379L51.5897 33.7029L52.2442 32.8381L50.8665 34.5379ZM49.2139 36.1182L50.0746 35.343L50.8665 34.5379L49.2139 36.1182ZM47.2863 37.5788L48.2844 36.8634L49.2139 36.1182L47.2863 37.5788ZM45.0836 38.9199L46.2193 38.2643L47.2863 37.5788L45.0836 38.9199ZM42.606 40.1415L43.8792 39.5457L45.0836 38.9199L42.606 40.1415ZM39.7733 35.1437L41.2641 40.7074L42.606 40.1415L39.7733 35.1437ZM42.9309 34.8111L41.3758 34.9421L39.7733 35.1437L42.9309 34.8111ZM45.8991 34.7612L44.4386 34.7508L42.9309 34.8111L45.8991 34.7612ZM48.678 34.9939L47.3122 34.8422L45.8991 34.7612L48.678 34.9939ZM51.2676 35.5092L49.9964 35.2162L48.678 34.9939L51.2676 35.5092ZM53.6679 36.3071L52.4914 35.8728L51.2676 35.5092L53.6679 36.3071ZM55.8789 37.3877L54.7971 36.8121L53.6679 36.3071L55.8789 37.3877ZM57.8672 38.6881L56.903 38.0105L55.8789 37.3877L57.8672 38.6881ZM59.616 40.2072L58.7716 39.4203L57.8672 38.6881L59.616 40.2072ZM61.1252 41.9451L60.4006 41.0488L59.616 40.2072L61.1252 41.9451ZM62.3949 43.9019L61.79 42.8962L61.1252 41.9451L62.3949 43.9019ZM63.4251 46.0774L62.94 44.9623L62.3949 43.9019L63.4251 46.0774ZM64.2157 48.4717L63.8504 47.2472L63.4251 46.0774L64.2157 48.4717ZM64.6264 50.3135L64.4426 49.3957L64.2157 48.4717L64.6264 50.3135ZM64.8646 52.1297L64.7671 51.2248L64.6264 50.3135L64.8646 52.1297ZM64.9303 53.9204L64.919 53.0282L64.8646 52.1297L64.9303 53.9204ZM64.8235 55.6855L64.8985 54.8061L64.9303 53.9204L64.8235 55.6855ZM64.5442 57.4251L64.7054 56.5585L64.8235 55.6855L64.5442 57.4251ZM64.0924 59.139L64.3399 58.2852L64.5442 57.4251L64.0924 59.139ZM63.4686 60.7777L63.7999 59.9663L64.0924 59.139L63.4686 60.7777ZM62.6898 62.3529L63.0986 61.5732L63.4686 60.7777L62.6898 62.3529ZM61.756 63.8648L62.2423 63.1168L62.6898 62.3529L61.756 63.8648ZM60.6671 65.3133L61.2309 64.597L61.756 63.8648L60.6671 65.3133ZM59.4232 66.6985L60.0645 66.0138L60.6671 65.3133L59.4232 66.6985ZM58.0243 68.0202L58.7431 67.3673L59.4232 66.6985L58.0243 68.0202ZM56.5086 69.2463L57.284 68.6472L58.0243 68.0202L56.5086 69.2463ZM54.8527 70.3609L55.6982 69.8175L56.5086 69.2463L54.8527 70.3609ZM53.0564 71.3639L53.9721 70.8763L54.8527 70.3609L53.0564 71.3639ZM51.1199 72.2555L52.1057 71.8237L53.0564 71.3639L51.1199 72.2555ZM49.043 73.0356L50.099 72.6595L51.1199 72.2555L49.043 73.0356ZM46.8259 73.7043L47.952 73.3839L49.043 73.0356L46.8259 73.7043ZM41.203 61.9925L27.4792 65.6698L46.8259 73.7043L41.203 61.9925ZM20.05 37.9439L36.9791 46.2286L37.4086 46.1211L20.05 37.9439ZM13.1675 12.258L29.176 21.1869L29.7116 21.0558L13.1675 12.258ZM32.8533 7.13847L30.8714 7.53145L13.1675 12.258L32.8533 7.13847ZM36.6422 6.8134L34.7769 6.89912L32.8533 7.13847L36.6422 6.8134ZM40.1983 7.10288L38.4494 6.88132L36.6422 6.8134L40.1983 7.10288ZM43.5265 7.95588L41.8999 7.46965L40.1983 7.10288L43.5265 7.95588ZM46.4947 9.28633L45.0581 8.56145L43.5265 7.95588L46.4947 9.28633ZM49.0827 11.0941L47.8362 10.1306L46.4947 9.28633L49.0827 11.0941ZM51.264 13.349L50.2313 12.1736L49.0827 11.0941L51.264 13.349ZM52.9732 15.9776L52.178 14.617L51.264 13.349L52.9732 15.9776ZM54.2074 18.9763L53.6497 17.4307L52.9732 15.9776L54.2074 18.9763ZM55.0025 23.0127L54.7001 20.8741L54.2074 18.9763L55.0025 23.0127ZM54.7508 27.1219L55.0195 25.0953L55.0025 23.0127L54.7508 27.1219ZM53.3569 31.007L54.1966 29.0925L54.7508 27.1219L53.3569 31.007ZM50.8665 34.5379L52.2442 32.8381L53.3569 31.007L50.8665 34.5379ZM47.2863 37.5788L49.2139 36.1182L50.8665 34.5379L47.2863 37.5788ZM42.606 40.1415L45.0836 38.9199L47.2863 37.5788L42.606 40.1415ZM42.9309 34.8111L39.7733 35.1437L42.606 40.1415L42.9309 34.8111ZM48.678 34.9939L45.8991 34.7612L42.9309 34.8111L48.678 34.9939ZM53.6679 36.3071L51.2676 35.5092L48.678 34.9939L53.6679 36.3071ZM57.8672 38.6881L55.8789 37.3877L53.6679 36.3071L57.8672 38.6881ZM61.1252 41.9451L59.616 40.2072L57.8672 38.6881L61.1252 41.9451ZM63.4251 46.0774L62.3949 43.9019L61.1252 41.9451L63.4251 46.0774ZM64.6264 50.3135L64.2157 48.4717L63.4251 46.0774L64.6264 50.3135ZM64.9303 53.9204L64.8646 52.1297L64.6264 50.3135L64.9303 53.9204ZM64.5442 57.4251L64.8235 55.6855L64.9303 53.9204L64.5442 57.4251ZM63.4686 60.7777L64.0924 59.139L64.5442 57.4251L63.4686 60.7777ZM61.756 63.8648L62.6898 62.3529L63.4686 60.7777L61.756 63.8648ZM59.4232 66.6985L60.6671 65.3133L61.756 63.8648L59.4232 66.6985ZM56.5086 69.2463L58.0243 68.0202L59.4232 66.6985L56.5086 69.2463ZM53.0564 71.3639L54.8527 70.3609L56.5086 69.2463L53.0564 71.3639ZM49.043 73.0356L51.1199 72.2555L53.0564 71.3639L49.043 73.0356ZM41.203 61.9925L46.8259 73.7043L49.043 73.0356L41.203 61.9925ZM20.05 37.9439L37.4086 46.1211L37.8316 46.0305L20.05 37.9439ZM13.1675 12.258L29.7116 21.0558L30.2367 20.9524L13.1675 12.258ZM36.6422 6.8134L32.8533 7.13847L13.1675 12.258L36.6422 6.8134ZM43.5265 7.95588L40.1983 7.10288L36.6422 6.8134L43.5265 7.95588ZM49.0827 11.0941L46.4947 9.28633L43.5265 7.95588L49.0827 11.0941ZM52.9732 15.9776L51.264 13.349L49.0827 11.0941L52.9732 15.9776ZM55.0025 23.0127L54.2074 18.9763L52.9732 15.9776L55.0025 23.0127ZM53.3569 31.007L54.7508 27.1219L55.0025 23.0127L53.3569 31.007ZM47.2863 37.5788L50.8665 34.5379L53.3569 31.007L47.2863 37.5788ZM42.9309 34.8111L42.606 40.1415L47.2863 37.5788L42.9309 34.8111ZM53.6679 36.3071L48.678 34.9939L42.9309 34.8111L53.6679 36.3071ZM61.1252 41.9451L57.8672 38.6881L53.6679 36.3071L61.1252 41.9451ZM64.6264 50.3135L63.4251 46.0774L61.1252 41.9451L64.6264 50.3135ZM64.5442 57.4251L64.9303 53.9204L64.6264 50.3135L64.5442 57.4251ZM61.756 63.8648L63.4686 60.7777L64.5442 57.4251L61.756 63.8648ZM56.5086 69.2463L59.4232 66.6985L61.756 63.8648L56.5086 69.2463ZM49.043 73.0356L53.0564 71.3639L56.5086 69.2463L49.043 73.0356ZM41.8366 61.8069L41.203 61.9925L49.043 73.0356L41.8366 61.8069ZM20.05 37.9439L37.8316 46.0305L38.248 45.9569L20.05 37.9439ZM13.1675 12.258L30.2367 20.9524L30.7513 20.8766L13.1675 12.258ZM43.5265 7.95588L36.6422 6.8134L13.1675 12.258L43.5265 7.95588ZM52.9732 15.9776L49.0827 11.0941L43.5265 7.95588L52.9732 15.9776ZM53.3569 31.007L55.0025 23.0127L52.9732 15.9776L53.3569 31.007ZM42.9309 34.8111L47.2863 37.5788L53.3569 31.007L42.9309 34.8111ZM61.1252 41.9451L53.6679 36.3071L42.9309 34.8111L61.1252 41.9451ZM64.5442 57.4251L64.6264 50.3135L61.1252 41.9451L64.5442 57.4251ZM56.5086 69.2463L61.756 63.8648L64.5442 57.4251L56.5086 69.2463ZM41.8366 61.8069L49.043 73.0356L56.5086 69.2463L41.8366 61.8069ZM20.05 37.9439L38.248 45.9569L38.658 45.9002L20.05 37.9439ZM13.1675 12.258L30.7513 20.8766L31.2554 20.8285L13.1675 12.258ZM52.9732 15.9776L43.5265 7.95588L13.1675 12.258L52.9732 15.9776ZM42.9309 34.8111L53.3569 31.007L52.9732 15.9776L42.9309 34.8111ZM64.5442 57.4251L61.1252 41.9451L42.9309 34.8111L64.5442 57.4251ZM41.8366 61.8069L56.5086 69.2463L64.5442 57.4251L41.8366 61.8069ZM20.05 37.9439L38.658 45.9002L39.0614 45.8604L20.05 37.9439ZM13.1675 12.258L31.2554 20.8285L31.7489 20.8081L13.1675 12.258ZM42.439 61.5978L41.8366 61.8069L64.5442 57.4251L42.439 61.5978ZM20.05 37.9439L39.0614 45.8604L39.4584 45.8376L20.05 37.9439ZM13.1675 12.258L31.7489 20.8081L32.2319 20.8153L13.1675 12.258ZM43.0103 61.3654L42.439 61.5978L64.5442 57.4251L43.0103 61.3654ZM20.05 37.9439L39.4584 45.8376L39.8488 45.8317L20.05 37.9439ZM13.1675 12.258L32.2319 20.8153L32.7044 20.8502L13.1675 12.258ZM43.5505 61.1095L43.0103 61.3654L64.5442 57.4251L43.5505 61.1095ZM20.05 37.9439L39.8488 45.8317L40.2328 45.8427L20.05 37.9439ZM13.1675 12.258L32.7044 20.8502L33.1663 20.9128L13.1675 12.258ZM44.0596 60.8302L43.5505 61.1095L64.5442 57.4251L44.0596 60.8302ZM20.05 37.9439L40.2328 45.8427L40.6102 45.8706L20.05 37.9439ZM13.1675 12.258L33.1663 20.9128L33.6177 21.003L13.1675 12.258ZM44.5375 60.5276L44.0596 60.8302L64.5442 57.4251L44.5375 60.5276ZM20.05 37.9439L40.6102 45.8706L40.9811 45.9155L20.05 37.9439ZM13.1675 12.258L33.6177 21.003L34.0586 21.1209L13.1675 12.258ZM44.9843 60.2015L44.5375 60.5276L64.5442 57.4251L44.9843 60.2015ZM20.05 37.9439L40.9811 45.9155L41.3455 45.9772L20.05 37.9439ZM13.1675 12.258L34.0586 21.1209L34.4889 21.2665L13.1675 12.258ZM45.4 59.852L44.9843 60.2015L64.5442 57.4251L45.4 59.852ZM20.05 37.9439L41.3455 45.9772L42.0647 46.1317L20.05 37.9439ZM13.1675 12.258L34.4889 21.2665L34.9087 21.4398L13.1675 12.258ZM45.7846 59.479L45.4 59.852L64.5442 57.4251L45.7846 59.479ZM20.05 37.9439L42.0647 46.1317L42.4165 46.2238L20.05 37.9439ZM52.9732 15.9776L13.1675 12.258L34.9087 21.4398L52.9732 15.9776ZM46.1381 59.0827L45.7846 59.479L64.5442 57.4251L46.1381 59.0827ZM20.05 37.9439L42.4165 46.2238L42.7589 46.3322L20.05 37.9439ZM52.9732 15.9776L34.9087 21.4398L35.3232 21.6241L52.9732 15.9776ZM46.4604 58.663L46.1381 59.0827L64.5442 57.4251L46.4604 58.663ZM32.7539 34.5399L20.05 37.9439L42.7589 46.3322L32.7539 34.5399ZM52.9732 15.9776L35.3232 21.6241L35.715 21.8421L52.9732 15.9776ZM46.7517 58.2199L46.4604 58.663L64.5442 57.4251L46.7517 58.2199ZM32.7539 34.5399L42.7589 46.3322L43.0918 46.4569L32.7539 34.5399ZM52.9732 15.9776L35.715 21.8421L36.0841 22.0939L52.9732 15.9776ZM47.0201 57.7407L46.7517 58.2199L64.5442 57.4251L47.0201 57.7407ZM32.7539 34.5399L43.0918 46.4569L43.4154 46.598L32.7539 34.5399ZM52.9732 15.9776L36.0841 22.0939L36.4304 22.3793L52.9732 15.9776ZM47.2516 57.2522L47.0201 57.7407L64.5442 57.4251L47.2516 57.2522ZM32.7539 34.5399L43.4154 46.598L43.7295 46.7554L32.7539 34.5399ZM52.9732 15.9776L36.4304 22.3793L36.754 22.6984L52.9732 15.9776ZM47.446 56.7542L47.2516 57.2522L64.5442 57.4251L47.446 56.7542ZM32.7539 34.5399L43.7295 46.7554L44.0342 46.9291L32.7539 34.5399ZM52.9732 15.9776L36.754 22.6984L37.0549 23.0512L52.9732 15.9776ZM47.6034 56.2469L47.446 56.7542L64.5442 57.4251L47.6034 56.2469ZM32.7539 34.5399L44.0342 46.9291L44.3294 47.1192L32.7539 34.5399ZM52.9732 15.9776L37.0549 23.0512L37.3331 23.4377L52.9732 15.9776ZM47.7237 55.7301L47.6034 56.2469L64.5442 57.4251L47.7237 55.7301ZM32.7539 34.5399L44.3294 47.1192L44.6152 47.3256L32.7539 34.5399ZM52.9732 15.9776L37.3331 23.4377L37.5886 23.8579L52.9732 15.9776ZM47.8071 55.2039L47.7237 55.7301L64.5442 57.4251L47.8071 55.2039ZM32.7539 34.5399L44.6152 47.3256L44.8916 47.5483L32.7539 34.5399ZM52.9732 15.9776L37.5886 23.8579L37.8213 24.3118L52.9732 15.9776ZM47.8534 54.6684L47.8071 55.2039L64.5442 57.4251L47.8534 54.6684ZM32.7539 34.5399L44.8916 47.5483L45.1586 47.7874L32.7539 34.5399ZM52.9732 15.9776L37.8213 24.3118L38.0313 24.7994L52.9732 15.9776ZM47.8626 54.1234L47.8534 54.6684L64.5442 57.4251L47.8626 54.1234ZM32.7539 34.5399L45.1586 47.7874L45.4161 48.0427L32.7539 34.5399ZM52.9732 15.9776L38.0313 24.7994L38.2186 25.3207L52.9732 15.9776ZM47.8349 53.569L47.8626 54.1234L64.5442 57.4251L47.8349 53.569ZM32.7539 34.5399L45.4161 48.0427L45.6588 48.2966L32.7539 34.5399ZM52.9732 15.9776L38.2186 25.3207L38.3832 25.8757L52.9732 15.9776ZM47.7701 53.0053L47.8349 53.569L64.5442 57.4251L47.7701 53.0053ZM33.2835 34.3862L32.7539 34.5399L45.6588 48.2966L33.2835 34.3862ZM52.9732 15.9776L38.3832 25.8757L38.5184 26.4392L52.9732 15.9776ZM47.6683 52.4321L47.7701 53.0053L64.5442 57.4251L47.6683 52.4321ZM33.7905 34.2152L33.2835 34.3862L45.6588 48.2966L33.7905 34.2152ZM52.9732 15.9776L38.5184 26.4392L38.6173 26.9863L52.9732 15.9776ZM47.5294 51.8495L47.6683 52.4321L64.5442 57.4251L47.5294 51.8495ZM33.7905 34.2152L45.6588 48.2966L45.8893 48.562L33.7905 34.2152ZM52.9732 15.9776L38.6173 26.9863L38.6801 27.5167L52.9732 15.9776ZM47.5294 51.8495L64.5442 57.4251L42.9309 34.8111L47.5294 51.8495ZM34.2749 34.0267L33.7905 34.2152L45.8893 48.562L34.2749 34.0267ZM52.9732 15.9776L38.6801 27.5167L38.7067 28.0307L52.9732 15.9776ZM47.4198 51.4689L47.5294 51.8495L42.9309 34.8111L47.4198 51.4689ZM34.7367 33.8209L34.2749 34.0267L45.8893 48.562L34.7367 33.8209ZM52.9732 15.9776L38.7067 28.0307L38.6971 28.5281L52.9732 15.9776ZM47.2982 51.0998L47.4198 51.4689L42.9309 34.8111L47.2982 51.0998ZM34.7367 33.8209L45.8893 48.562L46.1078 48.8389L34.7367 33.8209ZM52.9732 15.9776L38.6971 28.5281L38.6513 29.009L52.9732 15.9776ZM47.1644 50.7422L47.2982 51.0998L42.9309 34.8111L47.1644 50.7422ZM35.1758 33.5976L34.7367 33.8209L46.1078 48.8389L35.1758 33.5976ZM52.9732 15.9776L38.6513 29.009L38.5694 29.4734L52.9732 15.9776ZM47.0185 50.3962L47.1644 50.7422L42.9309 34.8111L47.0185 50.3962ZM35.5924 33.3569L35.1758 33.5976L46.1078 48.8389L35.5924 33.3569ZM52.9732 15.9776L38.5694 29.4734L38.4513 29.9212L52.9732 15.9776ZM46.8606 50.0617L47.0185 50.3962L42.9309 34.8111L46.8606 50.0617ZM35.5924 33.3569L46.1078 48.8389L46.3141 49.1273L35.5924 33.3569ZM52.9732 15.9776L38.4513 29.9212L38.297 30.3525L52.9732 15.9776ZM46.6905 49.7387L46.8606 50.0617L42.9309 34.8111L46.6905 49.7387ZM35.9864 33.0988L35.5924 33.3569L46.3141 49.1273L35.9864 33.0988ZM52.9732 15.9776L38.297 30.3525L38.1065 30.7673L52.9732 15.9776ZM46.5083 49.4272L46.6905 49.7387L42.9309 34.8111L46.5083 49.4272ZM35.9864 33.0988L46.3141 49.1273L46.5083 49.4272L35.9864 33.0988ZM52.9732 15.9776L38.1065 30.7673L37.8799 31.1655L52.9732 15.9776ZM35.9864 33.0988L46.5083 49.4272L42.9309 34.8111L35.9864 33.0988ZM52.9732 15.9776L37.8799 31.1655L37.617 31.5472L52.9732 15.9776ZM36.3577 32.8233L35.9864 33.0988L42.9309 34.8111L36.3577 32.8233ZM52.9732 15.9776L37.617 31.5472L37.3361 31.8924L52.9732 15.9776ZM36.7065 32.5304L36.3577 32.8233L42.9309 34.8111L36.7065 32.5304ZM52.9732 15.9776L37.3361 31.8924L37.0326 32.2201L52.9732 15.9776ZM37.0326 32.2201L36.7065 32.5304L42.9309 34.8111L37.0326 32.2201ZM42.9309 34.8111L52.9732 15.9776L37.0326 32.2201L42.9309 34.8111ZM0 15.7862L17.6163 81.531L33.9365 77.1579L0 15.7862ZM33.9365 77.1579L16.3203 11.4132L0 15.7862L33.9365 77.1579Z" fill="#FF4E00"/>
<path d="M30.7838 78.0027L27.4792 65.6698L41.203 61.9925C43.7994 61.2968 45.649 60.0392 46.7517 58.2199C47.8996 56.3221 48.1589 54.1986 47.5294 51.8495C47.1153 50.304 46.4109 49.0351 45.4161 48.0427C44.4048 46.9886 43.1673 46.3263 41.7034 46.056C40.2848 45.7072 38.71 45.7648 36.9791 46.2286L23.2552 49.9059L20.05 37.9439L32.7539 34.5399C34.9175 33.9601 36.5386 32.9626 37.617 31.5472C38.7407 30.0535 38.9961 28.163 38.3832 25.8757C37.7703 23.5884 36.6122 22.1097 34.9087 21.4398C33.2506 20.6914 31.3396 20.6072 29.176 21.1869L16.4721 24.5909L13.1675 12.258L29.8587 7.78556C33.9388 6.69231 37.6695 6.52088 41.051 7.27127C44.4942 8.0051 47.3673 9.45488 49.6703 11.6206C51.9734 13.7863 53.5638 16.5074 54.4417 19.7838C55.6178 24.173 55.0805 28.2262 52.8299 31.9433C50.6246 35.5821 46.7693 38.5035 41.2641 40.7074L39.7733 35.1437C46.2777 34.1959 51.6462 34.9439 55.8789 37.3877C60.0951 39.7696 62.874 43.4643 64.2157 48.4717C65.2096 52.1808 65.1685 55.7366 64.0924 59.139C62.9998 62.4797 60.9771 65.4401 58.0243 68.0202C55.1333 70.5838 51.4005 72.4785 46.8259 73.7043L30.7838 78.0027ZM17.6163 81.531L0 15.7862L16.3203 11.4132L33.9365 77.1579L17.6163 81.531Z" fill="#08360F"/>
</svg>
